<svg width="48" height="48" viewBox="0 0 48 48" fill="none" xmlns="http://www.w3.org/2000/svg">
<path d="M26.0812 46.9208C26.6337 46.3683 26.9441 45.619 26.9441 44.8377C26.9441 44.0563 26.6337 43.307 26.0812 42.7545L10.2702 26.9436L44.8294 26.9644C45.6139 26.9644 46.3663 26.6527 46.921 26.098C47.4758 25.5433 47.7874 24.7909 47.7874 24.0063C47.7874 23.2218 47.4758 22.4694 46.921 21.9147C46.3663 21.36 45.6139 21.0483 44.8294 21.0483L10.2702 21.0691L26.0812 5.25816C26.6337 4.70568 26.9441 3.95635 26.9441 3.17503C26.9441 2.3937 26.6337 1.64437 26.0812 1.09189C25.5287 0.539412 24.7794 0.22903 23.9981 0.229028C23.2167 0.22903 22.4674 0.539411 21.9149 1.09189L1.08361 21.9232C0.814678 22.1987 0.602363 22.5243 0.458667 22.8815C0.161039 23.6019 0.161039 24.4108 0.458667 25.1312C0.602363 25.4884 0.814678 25.814 1.08361 26.0895L21.9149 46.9208C22.4674 47.4733 23.2167 47.7837 23.9981 47.7837C24.7794 47.7837 25.5287 47.4733 26.0812 46.9208Z" fill="white"/>
</svg>
